<?xml version="1.0" encoding="UTF-8" standalone="no"?>
<!-- Created with Inkscape (http://www.inkscape.org/) -->

<svg
   xmlns:dc="http://purl.org/dc/elements/1.1/"
   xmlns:cc="http://creativecommons.org/ns#"
   xmlns:rdf="http://www.w3.org/1999/02/22-rdf-syntax-ns#"
   xmlns:svg="http://www.w3.org/2000/svg"
   xmlns="http://www.w3.org/2000/svg"
   xmlns:sodipodi="http://sodipodi.sourceforge.net/DTD/sodipodi-0.dtd"
   xmlns:inkscape="http://www.inkscape.org/namespaces/inkscape"
   width="210mm"
   height="297mm"
   viewBox="0 0 744.09448819 1052.3622047"
   id="svg4660"
   version="1.1"
   inkscape:version="0.92.1 r15371"
   sodipodi:docname="facebook.svg"
   inkscape:export-filename="C:\Users\Usama\Desktop\facebook.png"
   inkscape:export-xdpi="105.27949"
   inkscape:export-ydpi="105.27949">
  <defs
     id="defs4662" />
  <sodipodi:namedview
     id="base"
     pagecolor="#ffffff"
     bordercolor="#666666"
     borderopacity="1.0"
     inkscape:pageopacity="0.0"
     inkscape:pageshadow="2"
     inkscape:zoom="1.979899"
     inkscape:cx="400.43765"
     inkscape:cy="456.00639"
     inkscape:document-units="px"
     inkscape:current-layer="layer1"
     showgrid="false"
     inkscape:window-width="1600"
     inkscape:window-height="837"
     inkscape:window-x="-8"
     inkscape:window-y="-8"
     inkscape:window-maximized="1"
     inkscape:pagecheckerboard="true" />
  <metadata
     id="metadata4665">
    <rdf:RDF>
      <cc:Work
         rdf:about="">
        <dc:format>image/svg+xml</dc:format>
        <dc:type
           rdf:resource="http://purl.org/dc/dcmitype/StillImage" />
        <dc:title></dc:title>
      </cc:Work>
    </rdf:RDF>
  </metadata>
  <g
     inkscape:label="Layer 1"
     inkscape:groupmode="layer"
     id="layer1">
    <path
       inkscape:connector-curvature="0"
       id="path6028"
       d="m 266.7217,661.3411 c -0.5866,-0.088 -1.0466,-0.5004 -1.2316,-1.0994 -0.05,-0.164 -0.052,-0.6144 -0.052,-12.5668 0,-11.9532 0,-12.403 0.052,-12.5682 0.162,-0.5284 0.504,-0.8746 1.046,-1.0592 0.152,-0.052 0.5146,-0.052 12.5824,-0.052 12.0678,0 12.43,0 12.5824,0.052 0.5354,0.182 0.8628,0.5096 1.045,1.045 0.052,0.152 0.052,0.5146 0.052,12.5824 0,12.0678 0,12.43 -0.052,12.5822 -0.178,0.5216 -0.4676,0.8236 -0.9846,1.025 l -0.188,0.074 h -3.6164 l -3.6164,0.02 v -5.3078 -5.3076 h 1.7802 1.78 l 0.02,-0.092 c 0.02,-0.05 0.044,-0.3238 0.078,-0.6062 0.032,-0.2824 0.136,-1.085 0.23,-1.7832 0.092,-0.6984 0.178,-1.3564 0.188,-1.4622 l 0.02,-0.192 h -2.0466 -2.0464 l 0.02,-1.5762 c 0.02,-1.7588 0.02,-1.8092 0.2134,-2.2276 0.126,-0.2726 0.3268,-0.469 0.6212,-0.609 0.3796,-0.18 0.4502,-0.188 1.9894,-0.2014 l 1.3908,-0.02 v -1.8626 -1.8624 l -0.15,-0.02 c -1.0102,-0.116 -3.1344,-0.174 -3.7816,-0.104 -1.3276,0.144 -2.4048,0.6392 -3.1976,1.4694 -0.7048,0.7382 -1.1294,1.654 -1.3224,2.8516 -0.054,0.3426 -0.06,0.515 -0.072,2.261 l -0.02,1.8902 h -1.7808 -1.7808 v 2.0686 2.0686 h 1.7834 1.7832 v 5.3068 5.3068 h -6.5836 c -3.6212,0 -6.648,-0.02 -6.7264,-0.026 z"
       style="opacity:0.95;fill:#ffffff;fill-opacity:1;stroke-width:2"
       inkscape:export-xdpi="105.27949"
       inkscape:export-ydpi="105.27949" />
  </g>
</svg>
