<?xml version="1.0" encoding="UTF-8" standalone="no"?>
<!-- Created with Inkscape (http://www.inkscape.org/) -->

<svg
   xmlns:dc="http://purl.org/dc/elements/1.1/"
   xmlns:cc="http://creativecommons.org/ns#"
   xmlns:rdf="http://www.w3.org/1999/02/22-rdf-syntax-ns#"
   xmlns:svg="http://www.w3.org/2000/svg"
   xmlns="http://www.w3.org/2000/svg"
   xmlns:sodipodi="http://sodipodi.sourceforge.net/DTD/sodipodi-0.dtd"
   xmlns:inkscape="http://www.inkscape.org/namespaces/inkscape"
   width="210mm"
   height="297mm"
   viewBox="0 0 744.09448819 1052.3622047"
   id="svg4660"
   version="1.1"
   inkscape:version="0.92.1 r15371"
   sodipodi:docname="instagram.svg"
   inkscape:export-filename="C:\Users\Usama\Desktop\facebook.png"
   inkscape:export-xdpi="105.27949"
   inkscape:export-ydpi="105.27949">
  <defs
     id="defs4662" />
  <sodipodi:namedview
     id="base"
     pagecolor="#ffffff"
     bordercolor="#666666"
     borderopacity="1.0"
     inkscape:pageopacity="0.0"
     inkscape:pageshadow="2"
     inkscape:zoom="1.979899"
     inkscape:cx="400.43765"
     inkscape:cy="456.00639"
     inkscape:document-units="px"
     inkscape:current-layer="layer1"
     showgrid="false"
     inkscape:window-width="1600"
     inkscape:window-height="837"
     inkscape:window-x="-8"
     inkscape:window-y="-8"
     inkscape:window-maximized="1"
     inkscape:pagecheckerboard="true" />
  <metadata
     id="metadata4665">
    <rdf:RDF>
      <cc:Work
         rdf:about="">
        <dc:format>image/svg+xml</dc:format>
        <dc:type
           rdf:resource="http://purl.org/dc/dcmitype/StillImage" />
        <dc:title></dc:title>
      </cc:Work>
    </rdf:RDF>
  </metadata>
  <g
     inkscape:label="Layer 1"
     inkscape:groupmode="layer"
     id="layer1">
    <path
       inkscape:connector-curvature="0"
       id="path6034"
       d="m 328.88827,691.89631 c -0.6452,-0.062 -1.6598,-0.2756 -2.2548,-0.4752 -2.5344,-0.851 -4.0124,-2.4784 -4.7908,-5.2756 -0.2824,-1.0148 -0.2952,-1.3436 -0.3024,-7.7314 -0.02,-7.4222 0.038,-7.9208 0.9332,-9.766 0.5764,-1.1898 1.9274,-2.541 3.1172,-3.1172 1.8454,-0.8938 2.3438,-0.9414 9.7662,-0.9332 6.3876,0.02 6.7162,0.02 7.7314,0.3024 1.626,0.4524 2.552,0.964 3.5478,1.9598 0.9952,0.9952 1.5064,1.9202 1.961,3.548 0.2848,1.0196 0.296,1.3198 0.296,7.8688 0,6.549 -0.02,6.8492 -0.296,7.8688 -0.4546,1.628 -0.9658,2.5528 -1.961,3.548 -1.0008,1.0008 -1.9358,1.5152 -3.5478,1.9522 -0.987,0.2676 -1.4734,0.29 -7.0436,0.325 -3.291,0.022 -6.5114,-0.02 -7.1564,-0.074 z m 12.2606,-2.4762 c 1.8368,-0.178 2.7586,-0.5522 3.71,-1.5038 1.4472,-1.4472 1.6326,-2.5416 1.6326,-9.6396 0,-7.1022 -0.186,-8.2016 -1.628,-9.644 -1.4468,-1.4468 -2.5336,-1.6304 -9.6442,-1.6304 -7.1104,0 -8.1972,0.184 -9.644,1.6304 -1.4466,1.4466 -1.6304,2.5334 -1.6304,9.644 0,7.1106 0.184,8.1972 1.6304,9.644 0.9222,0.9222 1.8882,1.3308 3.523,1.4904 1.5828,0.154 10.488,0.162 12.0506,0.02 z m -7.841,-4.346 c -1.1448,-0.3078 -2.0626,-0.864 -3.0422,-1.8436 -1.464,-1.464 -2.0614,-2.924 -2.0614,-5.037 0,-3.8502 3.0816,-6.932 6.9318,-6.932 2.113,0 3.573,0.5976 5.037,2.0616 1.0014,1.0014 1.5376,1.9 1.8506,3.1014 0.241,0.9252 0.2708,2.5948 0.062,3.499 -0.5632,2.444 -2.776,4.6568 -5.2198,5.2198 -0.872,0.201 -2.6848,0.166 -3.5582,-0.07 z m 3.906,-2.7024 c 0.869,-0.447 1.6436,-1.2176 2.1106,-2.1006 0.3198,-0.604 0.364,-0.8464 0.364,-1.9944 0,-1.159 -0.042,-1.3878 -0.3776,-2.0244 -0.4796,-0.9112 -1.156,-1.5876 -2.0672,-2.0672 -0.6374,-0.3352 -0.8638,-0.3772 -2.0244,-0.376 -1.5386,0 -2.254,0.2784 -3.2216,1.246 -0.9674,0.9674 -1.2442,1.683 -1.246,3.2216 -8e-4,1.1606 0.042,1.387 0.3762,2.0244 0.4604,0.8748 1.1544,1.5888 1.9286,1.9844 0.9168,0.4682 1.1976,0.5254 2.3692,0.4812 0.8564,-0.032 1.253,-0.12 1.7882,-0.395 z m 4.9518,-9.8354 c -0.7992,-0.2002 -1.4362,-1.1546 -1.2392,-1.8572 0.268,-0.9562 0.766,-1.3432 1.7276,-1.3432 0.4658,0 0.6568,0.086 1.0384,0.4676 0.3922,0.3922 0.4678,0.5668 0.4678,1.0818 0,0.7272 -0.3704,1.278 -1.0504,1.5622 -0.4742,0.198 -0.4986,0.2004 -0.9442,0.09 z"
       style="opacity:0.95;fill:#ffffff;fill-opacity:1;stroke-width:2"
       inkscape:export-xdpi="105.27949"
       inkscape:export-ydpi="105.27949" />
  </g>
</svg>
