<?xml version="1.0" encoding="UTF-8" standalone="no"?>
<!-- Created with Inkscape (http://www.inkscape.org/) -->

<svg
   xmlns:dc="http://purl.org/dc/elements/1.1/"
   xmlns:cc="http://creativecommons.org/ns#"
   xmlns:rdf="http://www.w3.org/1999/02/22-rdf-syntax-ns#"
   xmlns:svg="http://www.w3.org/2000/svg"
   xmlns="http://www.w3.org/2000/svg"
   xmlns:sodipodi="http://sodipodi.sourceforge.net/DTD/sodipodi-0.dtd"
   xmlns:inkscape="http://www.inkscape.org/namespaces/inkscape"
   version="1.1"
   id="svg4634"
   width="128"
   height="64"
   viewBox="0 0 128 64"
   sodipodi:docname="sign.svg"
   inkscape:version="0.92.1 r15371">
  <metadata
     id="metadata4640">
    <rdf:RDF>
      <cc:Work
         rdf:about="">
        <dc:format>image/svg+xml</dc:format>
        <dc:type
           rdf:resource="http://purl.org/dc/dcmitype/StillImage" />
        <dc:title></dc:title>
      </cc:Work>
    </rdf:RDF>
  </metadata>
  <defs
     id="defs4638" />
  <sodipodi:namedview
     pagecolor="#ffffff"
     bordercolor="#666666"
     borderopacity="1"
     objecttolerance="10"
     gridtolerance="10"
     guidetolerance="10"
     inkscape:pageopacity="0"
     inkscape:pageshadow="2"
     inkscape:window-width="1600"
     inkscape:window-height="837"
     id="namedview4636"
     showgrid="false"
     inkscape:zoom="5.556149"
     inkscape:cx="67.387489"
     inkscape:cy="27.249803"
     inkscape:window-x="-8"
     inkscape:window-y="-8"
     inkscape:window-maximized="1"
     inkscape:current-layer="svg4634" />
  <path
     style="fill:#000000;stroke-width:0.39124751"
     d="M 0.43172732,63.771963 C -0.85658038,63.259584 0.68910912,59.39774 4.9150511,52.570555 14.266453,37.462969 24.204464,25.448645 34.796024,16.446638 46.415949,6.5706107 62.006969,-0.62011228 70.366373,0.04126372 c 3.123405,0.247116 5.63551,1.63101298 6.66387,3.67107298 1.390394,2.758254 1.0976,13.7043763 -0.47426,17.7304493 -0.2531,0.648278 -0.143258,0.693506 1.057506,0.435408 0.736969,-0.158409 2.66999,-0.710858 4.295595,-1.227665 1.625604,-0.516802 8.098472,-2.229796 14.38415,-3.806644 13.027876,-3.268234 17.816076,-4.777799 19.738166,-6.222799 0.74,-0.556321 1.34545,-1.1084553 1.34545,-1.2269773 0,-0.118513 -0.41398,-0.70041 -0.91997,-1.293103 -0.87046,-1.019637 -0.94468,-1.038614 -1.3793,-0.352662 -0.25263,0.398725 -0.45933,0.989522 -0.45933,1.312871 0,0.328962 -0.34716,0.587917 -0.78817,0.587917 -0.4335,0 -0.78818,-0.171401 -0.78818,-0.380887 0,-0.490216 -2.62362,-4.540618 -3.14811,-4.860117 -0.21927,-0.133571 -0.39867,-0.582127 -0.39867,-0.996789 0,-1.075205 2.1317,-1.000101 4.45014,0.156789 l 1.82511,0.910723 1.0988,-1.145293 c 1.88128,-1.960866 3.66038,-2.077597 3.66038,-0.240165 0,0.401115 0.17733,0.7293 0.39408,0.7293 0.21675,0 0.39409,-0.132485 0.39409,-0.294406 0,-0.565113 5.08418,-3.68772898 5.65361,-3.47235198 0.41669,0.157603 0.65027,1.21822598 0.85182,3.86790598 0.3206,4.21475 0.21242,5.142647 -0.59954,5.142647 -0.46786,0 -0.60853,-0.72298 -0.69904,-3.592969 -0.0623,-1.976136 -0.24851,-3.59297 -0.41375,-3.59297 -0.39985,0 -5.04191,3.338362 -5.3703,3.86207 -0.32386,0.516493 -1.66162,0.536938 -1.97933,0.03024 -0.13119,-0.209217 -0.0386,-0.748568 0.20572,-1.198549 0.69011,-1.270987 0.0767,-1.405674 -1.10366,-0.242311 -0.97288,0.958915 -1.01739,1.126867 -0.50929,1.921546 1.87889,2.938613 1.72131,4.2605893 -0.69314,5.8147883 -2.40364,1.547247 -10.70968,4.168134 -18.200109,5.742858 -3.331753,0.700441 -12.395447,3.15445 -19.617505,5.311469 -3.069227,0.916687 -3.312196,1.069743 -4.093016,2.578299 -3.00305,5.801961 -10.875607,12.650548 -17.865591,15.541847 -2.312251,0.956431 -3.332491,1.148139 -6.305383,1.18482 -3.122312,0.03856 -3.81058,-0.08393 -5.751106,-1.023246 -1.212383,-0.586856 -2.612339,-1.415794 -3.111016,-1.84209 -0.892738,-0.763151 -0.925519,-0.763792 -2.130619,-0.04169 -0.673162,0.403355 -3.085992,1.819967 -5.361841,3.148027 C 30.055736,45.101369 23.571869,49.321022 12.64193,56.714491 5.9127003,61.266427 1.5402332,64.043616 1.1737407,63.998553 1.0365672,63.981713 0.70266172,63.879723 0.43172732,63.77197 Z m 4.86764848,-3.80195 c 3.0664649,-1.949876 5.1038682,-3.325519 5.7962232,-3.913571 1.295799,-1.100596 17.900888,-12.225546 18.24783,-12.225546 0.107479,0 1.239989,-0.699172 2.516687,-1.553715 1.276698,-0.854544 2.497873,-1.553716 2.713722,-1.553716 0.753182,0 0.937661,-0.893621 0.87166,-4.222307 -0.06697,-3.377626 -0.865595,-9.200503 -1.602986,-11.687621 -0.264944,-0.893625 -0.266733,-1.473644 -0.0053,-1.731292 0.723456,-0.713067 1.48757,0.668946 1.914988,3.463555 0.426362,2.787713 2.357942,7.090703 4.165581,9.279687 l 0.927092,1.122674 6.049447,-2.933957 c 9.696351,-4.70268 12.317515,-5.825111 20.159794,-8.632822 6.943444,-2.485905 7.443877,-2.731113 7.93415,-3.887651 0.917584,-2.164557 1.565616,-6.853138 1.583415,-11.456171 0.01937,-5.0061763 -0.524136,-6.5466373 -2.764805,-7.8364733 -1.517962,-0.873808 -5.953341,-1.23093798 -8.351779,-0.672476 -4.014183,0.934684 -7.191173,1.955458 -7.191173,2.310527 0,0.20459 -0.465731,0.371983 -1.034961,0.371983 -1.4113,0 -8.773943,4.041674 -11.641017,6.3902543 -0.360992,0.295708 -0.734735,0.460391 -0.830536,0.365961 -0.09581,-0.09443 -0.398517,0.09472 -0.67269,0.420337 -0.274173,0.325619 -0.698459,0.593871 -0.942853,0.596115 C 41.23609,12.001308 26.453909,25.477186 20.777048,32.37224 15.836742,38.372675 9.9937887,46.408487 7.9263767,50.045764 7.5013695,50.793488 6.1931761,53.065802 5.0192797,55.095343 2.0527432,60.22417 1.390741,61.698637 2.05456,61.698637 c 0.289476,0 1.749653,-0.777878 3.244836,-1.728624 z M 55.478562,40.292677 c 1.177406,-0.398989 3.102199,-1.295554 4.27731,-1.992367 2.879764,-1.707612 9.083012,-6.794737 10.58073,-8.67699 1.303514,-1.638177 3.395775,-4.825451 3.167639,-4.825451 -0.125214,0 -4.845649,1.621533 -8.631761,2.965123 -6.939537,2.462657 -22.94556,10.029477 -22.549926,10.660441 0.120248,0.191765 1.002635,0.801529 1.960868,1.35503 3.012293,1.739982 7.032983,1.924659 11.19514,0.514214 z M 39.523099,37.573784 c -0.01194,-0.08358 -0.676958,-1.110996 -1.477824,-2.283142 L 36.589152,33.15947 v 3.205007 3.205013 l 1.477825,-0.92187 c 0.812803,-0.507026 1.468058,-0.990252 1.456122,-1.073836 z M 114.22416,6.5231477 c 0,-0.484206 -2.01716,-2.395446 -2.26764,-2.148558 -0.31034,0.305878 1.24031,2.555535 1.76148,2.555535 0.27839,0 0.50616,-0.183138 0.50616,-0.406977 z"
     id="path5812"
     inkscape:connector-curvature="0" />
</svg>
