<?xml version="1.0" encoding="UTF-8" standalone="no"?>
<!-- Created with Inkscape (http://www.inkscape.org/) -->

<svg
   xmlns:dc="http://purl.org/dc/elements/1.1/"
   xmlns:cc="http://creativecommons.org/ns#"
   xmlns:rdf="http://www.w3.org/1999/02/22-rdf-syntax-ns#"
   xmlns:svg="http://www.w3.org/2000/svg"
   xmlns="http://www.w3.org/2000/svg"
   xmlns:sodipodi="http://sodipodi.sourceforge.net/DTD/sodipodi-0.dtd"
   xmlns:inkscape="http://www.inkscape.org/namespaces/inkscape"
   version="1.1"
   id="svg4634"
   width="64"
   height="128"
   viewBox="0 0 64 128"
   sodipodi:docname="sign-shuji.svg"
   inkscape:version="0.92.1 r15371">
  <metadata
     id="metadata4640">
    <rdf:RDF>
      <cc:Work
         rdf:about="">
        <dc:format>image/svg+xml</dc:format>
        <dc:type
           rdf:resource="http://purl.org/dc/dcmitype/StillImage" />
        <dc:title></dc:title>
      </cc:Work>
    </rdf:RDF>
  </metadata>
  <defs
     id="defs4638" />
  <sodipodi:namedview
     pagecolor="#ffffff"
     bordercolor="#666666"
     borderopacity="1"
     objecttolerance="10"
     gridtolerance="10"
     guidetolerance="10"
     inkscape:pageopacity="0"
     inkscape:pageshadow="2"
     inkscape:window-width="1600"
     inkscape:window-height="837"
     id="namedview4636"
     showgrid="false"
     inkscape:zoom="1.9643953"
     inkscape:cx="79.43101"
     inkscape:cy="19.857311"
     inkscape:window-x="-8"
     inkscape:window-y="-8"
     inkscape:window-maximized="1"
     inkscape:current-layer="svg4634" />
  <path
     style="fill:#000000;stroke-width:0.29511371"
     d="m 56.351667,127.58643 c -0.0922,-0.23595 -0.35849,-0.35714 -0.59167,-0.2693 -0.23317,0.0878 -0.78553,-0.0632 -1.22746,-0.33563 -1.2424,-0.76588 -4.1355,-3.7335 -4.69349,-4.81439 -0.27545,-0.53358 -0.66719,-1.1675 -0.87052,-1.40873 -0.38665,-0.45869 -1.2026,-2.75383 -2.27015,-6.38562 -0.34694,-1.18026 -0.72612,-2.03551 -0.84264,-1.90056 -0.11651,0.13495 -0.66485,0.82413 -1.21852,1.53151 -2.71151,3.46423 -5.75682,5.30475 -10.67139,6.44956 -4.36565,1.01695 -7.67142,0.96574 -9.99405,-0.15481 -0.47569,-0.22949 -1.09128,-0.41726 -1.36799,-0.41726 -0.27671,0 -1.09384,-0.32499 -1.81586,-0.7222 -0.72201,-0.39721 -1.78888,-0.97871 -2.37082,-1.29221 -0.96301,-0.5188 -2.68811,-1.93063 -5.21995,-4.27204 -0.52169,-0.48245 -1.45145,-1.66664 -2.06613,-2.63154 -0.61469,-0.9649 -1.2003201,-1.82015 -1.3014101,-1.90056 -0.1010901,-0.0804 -0.4040001,-0.60671 -0.6731301,-1.16957 -0.26913,-0.56286 -0.84216,-1.71806 -1.27339,-2.56711 -0.43123,-0.84906 -1.05585,-2.2964 -1.38803,-3.21633 -0.33218,-0.91992 -0.70905,-1.86995 -0.83747,-2.111183 -0.12843,-0.24122 -0.60599,-1.95172 -1.06125,-3.80111 -0.45526,-1.84938 -1.08031,-4.0997 -1.38899,-5.0007 -0.30868,-0.901 -0.56124,-1.849886 -0.56124,-2.108626 0,-0.25875 -0.60317,-1.07967 -1.34037,-1.82427 -1.45451006,-1.46911 -1.69035006,-2.17734 -0.72507006,-2.17734 1.12253006,0 1.68806006,0.54402 4.78306006,4.60114 3.86,5.059926 6.7344602,8.464066 7.3395402,8.691996 1.45075,0.54649 1.47467,-2.26988 0.058,-6.83022 -0.43259,-1.392536 -0.53868,-1.626886 -2.63272,-5.815886 -1.5971002,-3.1949 -1.9461902,-4.44814 -1.2390302,-4.44814 0.71011,0 4.1318602,4.06022 6.8996002,8.18701 5.3767,8.016816 6.3934,9.459246 6.87591,9.755046 0.57453,0.35222 0.67803,0.971463 0.26842,1.606033 -0.21106,0.32698 -0.39018,0.30991 -1.02366,-0.0975 -0.68254,-0.43902 -2.1661,-2.544253 -7.35804,-10.441403 -1.50602,-2.290726 -2.58821,-3.461636 -1.45166,-1.570686 0.34411,0.57252 0.54068,1.04094 0.43682,1.04094 -0.10386,0 -0.0359,0.28045 0.15094,0.623206 0.42917,0.78719 1.51462,5.207 1.34496,5.47648 -0.0697,0.11067 -0.0236,0.65848 0.10247,1.21737 0.32434,1.4383 -0.65407,3.209103 -1.77312,3.209103 -1.35638,0 -3.7712702,-2.332223 -6.9017402,-6.665453 -0.49912,-0.6909 -0.97126,-1.19359 -1.04919,-1.11709 -0.19238,0.18885 0.73133,4.1097 1.26182,5.35604 0.2351,0.55234 0.40495,1.094 0.37745,1.20369 -0.15572,0.62115 0.65581,2.700433 2.43066,6.227803 1.1018802,2.18989 2.1558502,4.16355 2.3421702,4.3859 4.97079,5.93236 6.48157,7.11626 10.95552,8.58515 1.29561,0.42537 2.62372,0.88616 2.95136,1.02396 2.82598,1.18859 11.26566,-0.64315 14.5239,-3.15227 1.64746,-1.26868 4.38465,-4.28061 4.39847,-4.83995 0.005,-0.18449 0.40667,-0.85228 0.89358,-1.48399 0.48691,-0.63171 0.88529,-1.36196 0.88529,-1.62278 0,-0.26082 0.10651,-0.59922 0.23668,-0.752 0.13018,-0.15277 0.45476,-1.00144 0.7213,-1.88593 0.26654,-0.88449 0.69844,-2.32092 0.95978,-3.19205 0.63368,-2.11233 1.12531,-5.316323 0.99931,-6.512643 l -0.10191,-0.96767 -0.7374,1.46197 c -0.40556,0.80408 -0.80462,1.52775 -0.88679,1.60816 -0.0822,0.0804 -0.34892,0.54093 -0.59276,1.02338 -0.4508,0.8919 -4.83578,7.438453 -5.65812,8.447273 -0.85653,1.05077 -3.43115,3.79006 -3.99395,4.2494 -0.31067,0.25356 -1.04787,0.93937 -1.63822,1.52401 -3.99096,3.95237 -8.71074,5.76465 -10.36734,3.9808 -0.7629,-0.82151 -1.38175,-2.66044 -1.1434,-3.39764 0.0989,-0.30579 0.24201,-1.03321 0.31808,-1.61648 0.0761,-0.58328 0.47014,-1.5765 0.87571,-2.20716 0.6289,-0.97797 0.93638,-1.17596 2.09001,-1.34578 1.37918,-0.20303 1.89313,-0.53027 1.35017,-0.85968 -0.38374,-0.23281 -0.39623,-1.51987 -0.017,-1.74995 0.15716,-0.0953 0.55592,-0.008 0.88614,0.19471 0.85109,0.52176 1.17282,0.0862 1.52587,-2.06585 0.20385,-1.24254 0.19645,-2.80124 -0.0234,-4.922683 -0.38992,-3.76296 -0.74823,-4.75779 -5.34879,-14.850626 -1.76411,-3.87015 -2.45533,-5.99492 -2.26841,-6.973 0.10607,-0.55498 0.39428,-1.17316 0.64048,-1.37374 0.3677,-0.29957 0.58042,-0.24224 1.1912,0.32103 0.71345,0.65795 2.81329,4.56382 2.81329,5.23294 0,0.34174 1.30181,4.42674 1.96157,6.15529 0.21484,0.56286 0.39752,0.79312 0.40596,0.51169 0.0368,-1.22585 0.94132,-0.3097 2.21511,2.243516 0.756,1.51537 1.37455,2.81371 1.37455,2.88521 0,0.19215 2.6618,4.07108 3.2022,4.66644 0.73486,0.80961 0.96784,0.61046 0.96784,-0.82731 0,-1.33905 -0.40883,-2.54129 -2.81582,-8.280466 -1.2287,-2.92968 -1.40563,-4.12301 -0.6113,-4.12301 0.52947,0 0.91081,0.54784 1.32291,1.90055 0.19598,0.64327 1.03893,2.51584 1.87323,4.161256 2.34693,4.62864 3.28907,5.26537 3.44757,2.32997 0.0715,-1.3245 -0.0899,-2.0499 -0.81912,-3.680826 -0.4995,-1.11718 -0.90818,-2.16669 -0.90818,-2.33225 0,-0.16555 -0.33509,-0.91966 -0.74465,-1.67579 -0.85133,-1.57176 -0.9246,-2.11545 -0.31595,-2.34472 0.67365,-0.25376 1.40362,0.30368 1.81059,1.38264 0.20541,0.54458 0.67406,1.71382 1.04145,2.59831 0.36738,0.88449 0.95834,2.33184 1.31324,3.216326 0.45845,1.14257 0.82406,1.63375 1.26282,1.69654 1.68083,0.24055 1.38977,-5.735296 -0.44823,-9.202586 -0.32641,-0.61575 -0.73763,-1.44849 -0.91384,-1.85053 -0.1762,-0.40204 -0.48588,-0.95762 -0.68816,-1.23463 -0.5602,-0.76711 0.0566,-1.22925 1.04845,-0.78561 0.80047,0.35802 1.1996,1.01766 2.28392,3.7746 0.81032,2.06024 1.28641,3.09953 2.78805,6.08618 1.0855,2.158986 1.26524,2.373756 1.6049,1.917766 0.62051,-0.833026 0.44244,-2.577526 -0.50112,-4.909206 -1.36034,-3.36161 -1.7319,-5.35492 -1.59105,-8.53553 0.13365,-3.01832 0.59516,-4.20819 1.6322,-4.20819 0.40917,0 0.7741,0.43547 1.24768,1.48886 l 0.66937,1.48886 0.0468,-4.70518 c 0.0257,-2.58786 -0.0655,-4.70519 -0.20278,-4.70519 -0.87753,0 -6.79147,2.58732 -10.97187,4.80014 -1.35183,0.71558 -2.75922,1.39173 -3.12752,1.50256 -0.36831,0.11084 -0.8399,0.3353 -1.04797,0.49881 -0.20808,0.16352 -1.28037,0.62356 -2.38288,1.02232 -1.66483,0.60215 -2.58508,0.73153 -5.42994,0.7634 -3.20652,0.0359 -3.53899,-0.0155 -5.20325,-0.80455 -3.24505,-1.53852 -5.60153,-3.61954 -6.82629,-6.02832 -0.90136,-1.77274 -2.22068,-5.35145 -2.53314,-6.87124 -0.16532,-0.80408 -0.43616,-2.0812 -0.60186,-2.83804 -0.37383,-1.70735 -0.23257,-10.24071 0.23133,-13.97457 0.54201,-4.36255 0.69183,-5.39604 0.81041,-5.59042 0.0608,-0.0996 0.19801,-0.88909 0.30495,-1.75436 0.36681,-2.96794 2.06772,-9.1147 3.94626,-14.261 4.3479,-11.91114 13.35556,-23.130389598857 18.57084,-23.130389598857 0.73006,0 1.44543,0.300559698857 2.37658,0.998499698857 1.1531,0.86429 1.3988,1.24743 1.82821,2.85083 0.86794,3.24082 1.04,5.22562 0.94635,10.9165299 -0.0985,5.98767 -0.5743,9.49328 -1.82537,13.45009 -0.76279,2.41247 -0.99655,2.8279 -2.12047,3.76837 -0.5407,0.45244 -0.74135,0.48554 -1.11211,0.18349 -0.2488,-0.2027 -0.45237,-0.72892 -0.45237,-1.16938 0,-0.68116 0.10379,-0.78135 0.69457,-0.67049 0.59006,0.11073 0.76842,-0.0604 1.18528,-1.13702 0.69823,-1.80338 1.68536,-5.83629 1.86833,-7.63307 0.72903,-7.15907 0.69209,-14.2852099 -0.0804,-15.5029399 -0.12324,-0.19428 -0.18453,-0.65359 -0.1362,-1.02069 0.10506,-0.79808 -1.23326,-3.14719 -2.0321,-3.56687 -1.33498,-0.70135 -3.9569,0.13532 -6.01383,1.91905 -2.03751,1.76688 -6.50651,7.4637599 -6.50651,8.2942099 0,0.12975 -0.20145,0.40004 -0.44768,0.60064 -0.62704,0.51084 -3.72235,5.65756 -3.72235,6.18931 0,0.24065 -0.10053,0.53622 -0.2234,0.65684 -0.12286,0.12061 -0.23153,0.30701 -0.24149,0.41422 -0.01,0.10721 -0.24452,0.70441 -0.52125,1.32711 -0.27674,0.6227 -0.50771,1.2148 -0.51327,1.31577 -0.006,0.10097 -0.26908,0.70989 -0.58561,1.35316 -0.31653,0.64326 -0.58005,1.34161 -0.58561,1.55187 -0.006,0.21027 -0.40077,1.59182 -0.87825,3.07013 -0.47748,1.47831 -1.02526,3.4115 -1.21728,4.29599 -0.19202,0.88449 -0.50128,2.13447 -0.68724,2.77774 -0.18597,0.64326 -0.36117,1.43272 -0.38934,1.75436 -0.0282,0.32163 -0.12384,0.97951 -0.21258,1.46196 -0.0888,0.48245 -0.2428,1.53507 -0.34234,2.33915 -0.0995,0.80408 -0.30506,2.25143 -0.45672,3.21632 -0.6105,3.88401 -0.53988,11.1387 0.15611,16.03779 0.77134,5.42947 4.09952,10.49382 8.23046,12.52396 2.73614,1.34465 4.92838,1.62621 7.85539,1.0089 2.57312,-0.54268 7.58167,-2.67432 10.45542,-4.44983 1.88249,-1.16307 5.62652,-2.78555 8.00687,-3.46979 0.98293,-0.28255 1.95708,-0.56251 2.16477,-0.62214 0.20769,-0.0596 0.37251,-0.47347 0.36627,-0.91967 -0.0163,-1.16527 0.60661,-4.49302 0.99074,-5.2929 1.11326,-2.31814 3.60537,-1.01949 4.67255,2.43488 0.19873,0.64327 0.54209,1.56431 0.76303,2.04676 0.44284,0.96698 0.96208,3.6314 1.17773,6.04335 0.0767,0.85738 0.35594,3.62888 0.62062,6.1589 0.26468,2.53001 0.40231,4.90873 0.30584,5.28604 -0.0965,0.37732 -0.51567,0.83822 -0.93157,1.02424 -0.64832,0.28997 -0.84816,0.24793 -1.401,-0.29477 -0.87174,-0.85574 -1.4758,-2.60462 -1.06729,-3.09002 0.40545,-0.48177 0.9998,-0.0148 1.25586,0.98665 0.10402,0.40687 0.35174,0.68658 0.55047,0.62158 0.41971,-0.13728 0.51902,-2.85696 0.17824,-4.88095 -0.12306,-0.73088 -0.305,-1.85518 -0.4043,-2.49844 -0.54464,-3.528 -0.87444,-3.55333 -1.16869,-0.0898 -0.1128,1.32768 -0.34549,3.00943 -0.51711,3.73721 -0.45929,1.94784 -2.05156,6.68138 -2.75645,8.19448 -0.3499,0.7511 -0.65956,2.13142 -0.72155,3.21633 -0.0924,1.61674 -0.005,2.05102 0.58837,2.908116 0.87282,1.2618 2.42119,2.1783 3.30705,1.95749 1.06106,-0.26449 1.52766,-1.32757 1.71511,-3.907666 0.18252,-2.51214 0.41868,-3.13408 0.91566,-2.41144 0.39594,0.57572 0.16248,5.493526 -0.30613,6.448956 -0.45733,0.93239 -1.77877,1.72958 -2.86701,1.72958 -0.48999,0 -1.31725,-0.40244 -2.06702,-1.00554 l -1.25008,-1.00555 -0.47634,0.98056 c -0.26198,0.53931 -0.75764,1.06821 -1.10146,1.17532 -0.85807,0.26735 -0.81988,0.38006 2.42793,7.165043 2.78906,5.8266 6.93774,13.72672 8.29159,15.78924 1.42379,2.16907 1.93624,6.14843 1.03253,8.01791 -0.28981,0.59954 -0.8755,1.30744 -1.30153,1.57311 -0.42603,0.26567 -0.84161,0.56545 -0.92352,0.66617 -0.0819,0.10072 -1.19656,0.19056 -2.47701,0.19966 -1.78283,0.0127 -2.36735,-0.084 -2.49577,-0.41248 z m 4.22813,-1.09467 c 0.32765,-0.101 0.88457,-0.59054 1.23762,-1.08785 0.54911,-0.77351 0.62362,-1.20539 0.51547,-2.98796 -0.10226,-1.68554 -0.31075,-2.39226 -1.09096,-3.69812 -0.5305,-0.8879 -1.29651,-2.33804 -1.70225,-3.22252 -0.40575,-0.88449 -1.15396,-2.26605 -1.66269,-3.07013 -0.50873,-0.80408 -1.07558,-1.89541 -1.25966,-2.42518 -0.18408,-0.52976 -0.60767,-1.33954 -0.94131,-1.7995 -0.33364,-0.45995 -0.60662,-0.91428 -0.60662,-1.0096 0,-0.222 -2.17431,-4.65899 -2.37831,-4.85329 -0.0844,-0.0804 -0.18212,-0.29629 -0.21711,-0.47974 -0.035,-0.18345 -0.42824,-1.10449 -0.87388,-2.046763 l -0.81025,-1.7132 -0.2591,1.31577 c -0.56937,2.891373 -1.45744,6.333743 -1.84808,7.163633 -1.34643,2.86041 -1.93244,4.32874 -1.80707,4.52788 0.28442,0.45175 1.31857,0.51468 1.89904,0.11557 0.62014,-0.4264 1.92757,-3.39015 1.88717,-4.27796 -0.0128,-0.28142 0.1136,-0.51168 0.28089,-0.51168 0.16729,0 0.24347,-0.16448 0.16928,-0.3655 -0.0742,-0.20102 0.0573,-0.58252 0.29211,-0.84779 0.23485,-0.26526 0.43881,-0.89025 0.45325,-1.38886 0.0145,-0.49862 0.1399,-0.90657 0.27879,-0.90657 0.46722,0 0.25774,2.71897 -0.39143,5.08067 -0.80542,2.93016 -2.14439,4.97838 -3.61476,5.52953 -0.44042,0.16508 -0.49864,0.39604 -0.32794,1.301 0.54298,2.87858 3.12641,8.10319 4.96944,10.04996 1.42869,1.50911 5.79357,2.88768 6.76585,2.13687 0.24574,-0.18976 0.71487,-0.42766 1.04251,-0.52867 z m -29.80852,-11.17954 c 2.64135,-1.57703 4.5668,-3.2593 7.5807,-6.62327 2.41307,-2.69336 5.68467,-6.96883 6.2025,-8.1057 0.10987,-0.24122 0.84522,-1.418063 1.6341,-2.615203 0.78888,-1.19714 1.43433,-2.35784 1.43433,-2.57933 0,-0.22149 0.20106,-0.60008 0.44679,-0.8413 0.64892,-0.63701 0.55048,-1.67736 -0.31789,-3.35955 -0.82243,-1.593206 -1.13679,-1.635636 -1.19922,-0.16185 -0.0907,2.14079 -1.55309,3.6656 -2.78894,2.90796 -0.47722,-0.29256 -0.55976,-0.20079 -0.72351,0.80443 -0.22019,1.35173 -1.10951,2.08112 -2.26164,1.85492 -0.78488,-0.15409 -0.80065,-0.12794 -0.80065,1.32781 0,2.304913 -1.22842,3.291193 -2.67028,2.143923 -0.90159,-0.717383 -3.04396,-3.915363 -4.35079,-6.494543 l -1.11352,-2.19766 0.18823,1.46197 c 0.21153,1.64298 1.19593,5.12076 2.31737,8.187013 0.41171,1.12571 0.75203,2.07965 0.75626,2.11985 0.004,0.0402 0.0117,0.1372 0.0166,0.21553 0.005,0.0783 0.27299,0.74714 0.59572,1.48621 0.69597,1.59384 0.7636,2.75726 0.16027,2.75726 -0.67694,0 -1.65342,-1.59257 -2.26619,-3.69597 -0.6766,-2.32252 -0.86501,-2.57513 -0.93257,-1.25035 -0.0693,1.35891 -0.13226,1.8006 -0.32993,2.31478 -0.0927,0.24122 -0.38171,1.1024 -0.64218,1.91372 -0.26046,0.81133 -0.67692,1.76015 -0.92547,2.10849 -0.4529,0.63474 -2.3895,1.35417 -2.8664,1.06483 -0.57288,-0.34756 -1.41299,0.26818 -1.85906,1.36255 -0.59675,1.46405 -0.60075,2.02981 -0.0144,2.02981 0.362,0 0.41978,0.21195 0.2706,0.99259 -0.10979,0.57446 -0.0406,1.26608 0.16426,1.64183 0.29686,0.54451 0.52585,0.62185 1.41953,0.47949 0.58606,-0.0934 1.87995,-0.65597 2.8753,-1.25024 z m -3.51585,-32.634169 c -0.56383,-1.52902 -1.29928,-3.29025 -1.63433,-3.91385 l -0.60919,-1.13382 -0.0146,1.02338 c -0.01,0.67396 0.51254,2.04545 1.52939,4.01686 0.84921,1.64642 1.59124,2.94713 1.64896,2.89047 0.0577,-0.0567 -0.35638,-1.35403 -0.92021,-2.88304 z m 23.64394,-0.4434 c 0,-2.45977 -0.79393,-6.23157 -1.44654,-6.87219 -0.45602,-0.44766 -0.67238,2.16569 -0.35788,4.32276 0.36792,2.52342 1.13617,5.1088 1.51809,5.1088 0.16139,0 0.28633,-1.11682 0.28633,-2.55937 z m 2.38202,0.71465 c -6e-4,-0.19153 0.32371,-1.13769 0.72042,-2.10259 1.03398,-2.51497 1.16829,-2.8963 1.11104,-3.15453 -0.0281,-0.12682 0.15906,-1.11365 0.41595,-2.19295 0.25689,-1.07929 0.54084,-3.01497 0.63099,-4.3015 0.14923,-2.12967 0.10023,-2.43079 -0.54721,-3.36252 -0.52351,-0.75338 -0.96402,-1.04755 -1.66966,-1.115 l -0.95854,-0.0916 -0.0263,2.57696 c -0.0145,1.41734 -0.10048,4.22168 -0.19119,6.23188 -0.24888,5.51527 -0.16391,8.27219 0.24724,8.02275 0.14744,-0.0894 0.26769,-0.31935 0.26722,-0.51088 z m 4.7666,-14.49349 c 0,-0.73603 -0.27203,-1.85526 -1.25239,-5.15269 -0.40742,-1.37037 -1.70304,-3.94931 -1.98081,-3.94284 -0.82692,0.0193 -1.83041,2.25045 -1.83041,4.06979 v 1.42288 l 1.46468,0.34492 c 1.79956,0.42379 2.3119,0.95224 2.7738,2.86103 0.377,1.55797 0.82513,1.77354 0.82513,0.39691 z"
     id="path9356"
     inkscape:connector-curvature="0" />
</svg>
