<?xml version="1.0" encoding="UTF-8" standalone="no"?>
<!-- Created with Inkscape (http://www.inkscape.org/) -->

<svg
   xmlns:dc="http://purl.org/dc/elements/1.1/"
   xmlns:cc="http://creativecommons.org/ns#"
   xmlns:rdf="http://www.w3.org/1999/02/22-rdf-syntax-ns#"
   xmlns:svg="http://www.w3.org/2000/svg"
   xmlns="http://www.w3.org/2000/svg"
   xmlns:sodipodi="http://sodipodi.sourceforge.net/DTD/sodipodi-0.dtd"
   xmlns:inkscape="http://www.inkscape.org/namespaces/inkscape"
   width="210mm"
   height="297mm"
   viewBox="0 0 744.09448819 1052.3622047"
   id="svg4660"
   version="1.1"
   inkscape:version="0.92.1 r15371"
   sodipodi:docname="snapchat.svg"
   inkscape:export-filename="C:\Users\Usama\Desktop\facebook.png"
   inkscape:export-xdpi="105.27949"
   inkscape:export-ydpi="105.27949">
  <defs
     id="defs4662" />
  <sodipodi:namedview
     id="base"
     pagecolor="#ffffff"
     bordercolor="#666666"
     borderopacity="1.0"
     inkscape:pageopacity="0.0"
     inkscape:pageshadow="2"
     inkscape:zoom="1.979899"
     inkscape:cx="400.43765"
     inkscape:cy="456.00639"
     inkscape:document-units="px"
     inkscape:current-layer="layer1"
     showgrid="false"
     inkscape:window-width="1600"
     inkscape:window-height="837"
     inkscape:window-x="-8"
     inkscape:window-y="-8"
     inkscape:window-maximized="1"
     inkscape:pagecheckerboard="true" />
  <metadata
     id="metadata4665">
    <rdf:RDF>
      <cc:Work
         rdf:about="">
        <dc:format>image/svg+xml</dc:format>
        <dc:type
           rdf:resource="http://purl.org/dc/dcmitype/StillImage" />
        <dc:title></dc:title>
      </cc:Work>
    </rdf:RDF>
  </metadata>
  <g
     inkscape:label="Layer 1"
     inkscape:groupmode="layer"
     id="layer1">
    <path
       inkscape:connector-curvature="0"
       id="path6040"
       d="m 405.47168,689.52471 c -0.8186,-0.176 -1.3804,-0.4592 -2.8366,-1.4314 -1.2738,-0.8502 -1.7646,-1.0816 -2.5044,-1.1812 -0.5974,-0.08 -1.8258,-0.032 -2.3952,0.092 -0.6258,0.138 -1.0266,0.134 -1.145,-0.02 -0.052,-0.064 -0.154,-0.384 -0.2276,-0.7108 -0.162,-0.7244 -0.2698,-1.0102 -0.3948,-1.0488 -0.052,-0.02 -0.3786,-0.082 -0.7252,-0.148 -1.7322,-0.3268 -2.7904,-0.7762 -3.0336,-1.2888 -0.104,-0.2204 -0.07,-0.4626 0.074,-0.5376 0.052,-0.026 0.196,-0.066 0.323,-0.088 0.3944,-0.068 1.1616,-0.31639 1.6196,-0.52519 1.7036,-0.7764 3.4926,-2.6714 4.3378,-4.595 0.278,-0.63261 0.3108,-0.9334 0.144,-1.3204 -0.207,-0.48101 -0.6414,-0.7584 -1.826,-1.16601 -0.6386,-0.2196 -1.1082,-0.45 -1.3538,-0.6638 -0.5372,-0.4678 -0.484,-1.0138 0.132,-1.3486 0.4736,-0.25779 0.6518,-0.25659 1.4272,0.02 0.8044,0.2766 1.3048,0.3118 1.7244,0.122 l 0.2454,-0.112 -0.032,-0.3602 c -0.07,-0.8124 -0.144,-2.4614 -0.142,-3.2746 0,-1.5542 0.168,-2.5408 0.5666,-3.3774 0.715,-1.4984 1.9484,-2.7812 3.356,-3.4914 0.6222,-0.3136 1.65,-0.6392 2.398,-0.7596 0.7996,-0.128 2.8038,-0.098 3.4774,0.056 2.40761,0.5434 4.176,1.8686 5.2322,3.9206 0.172,0.334 0.35361,0.7362 0.4038,0.8938 0.34161,1.0732 0.397,2.9776 0.172,5.9164 l -0.036,0.4726 0.2766,0.122 c 0.3804,0.168 0.8664,0.124 1.587,-0.146 0.63441,-0.2378 0.97761,-0.2592 1.36121,-0.086 0.6648,0.3014 0.85459,0.8086 0.47239,1.2628 -0.25939,0.3084 -0.7482,0.5734 -1.63999,0.889 -0.95241,0.3368 -1.38981,0.592 -1.62521,0.9482 -0.136,0.205 -0.15799,0.2982 -0.15799,0.6454 0,0.3652 0.026,0.4608 0.26319,0.9502 0.92901,1.9218 2.4808,3.5838 4.1164,4.4086 0.4356,0.2198 1.2288,0.4944 1.67202,0.5788 0.20139,0.038 0.41139,0.108 0.46659,0.156 0.132,0.116 0.126,0.4004 -0.02,0.6134 -0.26921,0.4088 -1.356,0.8576 -2.6938,1.1126 -1.098,0.2092 -1.0526,0.194 -1.1426,0.3794 -0.046,0.092 -0.152,0.4606 -0.236,0.816 -0.086,0.3556 -0.2,0.6972 -0.256,0.7594 -0.132,0.146 -0.347,0.144 -1.2724,0 -0.5952,-0.098 -0.8922,-0.116 -1.5914,-0.094 -1.3296,0.044 -1.7024,0.192 -3.3236,1.3252 -0.9312,0.651 -1.8604,1.122 -2.5466,1.2906 -0.3934,0.098 -0.6554,0.118 -1.404,0.114 -0.5534,0 -1.0686,-0.036 -1.2928,-0.084 z"
       style="opacity:0.95;fill:#ffffff;fill-opacity:1;stroke-width:2"
       inkscape:export-xdpi="98.661652"
       inkscape:export-ydpi="98.661652" />
  </g>
</svg>
