<?xml version="1.0" encoding="UTF-8" standalone="no"?>
<!-- Created with Inkscape (http://www.inkscape.org/) -->

<svg
   xmlns:dc="http://purl.org/dc/elements/1.1/"
   xmlns:cc="http://creativecommons.org/ns#"
   xmlns:rdf="http://www.w3.org/1999/02/22-rdf-syntax-ns#"
   xmlns:svg="http://www.w3.org/2000/svg"
   xmlns="http://www.w3.org/2000/svg"
   xmlns:sodipodi="http://sodipodi.sourceforge.net/DTD/sodipodi-0.dtd"
   xmlns:inkscape="http://www.inkscape.org/namespaces/inkscape"
   width="161.59142mm"
   height="118.36402mm"
   viewBox="0 0 572.56801 419.40007"
   id="svg8661"
   version="1.1"
   inkscape:version="0.91 r13725"
   sodipodi:docname="munictenlogowhite.svg">
  <defs
     id="defs8663" />
  <sodipodi:namedview
     id="base"
     pagecolor="#ffffff"
     bordercolor="#666666"
     borderopacity="1.0"
     inkscape:pageopacity="0.0"
     inkscape:pageshadow="2"
     inkscape:zoom="0.35"
     inkscape:cx="-585.86083"
     inkscape:cy="201.12856"
     inkscape:document-units="px"
     inkscape:current-layer="layer1"
     showgrid="false"
     fit-margin-top="0"
     fit-margin-left="0"
     fit-margin-right="0"
     fit-margin-bottom="0"
     inkscape:window-width="1366"
     inkscape:window-height="705"
     inkscape:window-x="-8"
     inkscape:window-y="-8"
     inkscape:window-maximized="1" />
  <metadata
     id="metadata8666">
    <rdf:RDF>
      <cc:Work
         rdf:about="">
        <dc:format>image/svg+xml</dc:format>
        <dc:type
           rdf:resource="http://purl.org/dc/dcmitype/StillImage" />
        <dc:title></dc:title>
      </cc:Work>
    </rdf:RDF>
  </metadata>
  <g
     inkscape:label="Layer 1"
     inkscape:groupmode="layer"
     id="layer1"
     transform="translate(-533.71797,-314.0907)">
    <g
       id="g9242"
       style="fill:#ffffff">
      <path
         inkscape:export-filename="C:\Users\Hasan Ali Rizvi\Documents\Hoodie Artist\MUNIC TEN\Logo\Exports\Logo Set\munictenlogoblackpink.png"
         inkscape:export-ydpi="512"
         inkscape:export-xdpi="512"
         sodipodi:nodetypes="ccccscccccccsccccccccccccccccccccccccccccccccccccccccccccc"
         inkscape:connector-curvature="0"
         id="path5047"
         d="m 660.22091,314.0911 c 0,0 -4.3904,2.132 -7.7108,10.1032 -3.3256,7.9796 -3.4608,15.0328 -3.4608,15.0328 0,0 -7.8388,2.6544 -11.9604,7.0428 -4.1232,4.3884 -11.176,14.3624 -11.176,31.9156 0,17.5532 2.1312,22.6072 -2.9224,30.5844 -5.052,7.978 -19.9448,25.264 -25.2652,36.4332 -3.2844,6.9004 -8.2852,16.5608 -11.1968,28.3752 -1.802,7.3124 -2.816,15.4404 -2.104,24.2848 1.8616,23.1388 7.7148,35.3764 7.7148,35.3764 0,0 6.6484,-13.3004 9.5728,-17.0244 2.926,-3.7216 5.5856,-6.6464 5.5856,-6.6464 0,0 8.7796,36.9672 8.7796,57.7116 0,13.2632 -0.176,30.46378 -0.32,41.32618 2.46282,0.1862 5.35348,0.44778 7.7732,1.10708 -0.176,-14.6208 -0.24,-38.54086 0.8016,-46.16166 1.5956,-11.7016 3.9872,-36.426 14.8912,-54.7764 7.4164,-12.48 9.8472,-33.362 10.3448,-51.2656 0.236,-8.4268 0.192,-16.3552 -0.236,-22.1432 -1.33,-18.0856 -8.5128,-51.5984 -7.7148,-57.7156 0.798,-6.118 4.5248,-17.2828 9.5768,-17.016 5.0536,0.264 5.5824,3.9836 4.784,8.7712 -0.7972,4.7876 0.5236,12.7684 3.1896,17.0244 2.6588,4.2556 5.5856,7.7108 5.5856,7.7108 0,0 3.7292,17.0204 7.7196,25.2656 3.9888,8.2448 8.508,15.4256 8.508,15.4256 0,0 -5.324,-22.3392 -6.12,-28.7224 -0.8,-6.3828 0.5372,-17.0232 2.9304,-25.7996 2.3932,-8.7768 2.9252,-13.8256 -0.526,-21.5376 -3.4572,-7.7124 -9.0484,-10.6384 -10.378,-13.5636 -1.3292,-2.9256 -4.5216,-12.7668 -5.3192,-17.5552 -0.7984,-4.7876 -1.3272,-13.5636 -1.3272,-13.5636 l 0,0 0,0 z m 19.1832,98.4652 0.04,0.072 7.8776,42.4692 -15.864,-29.5736 c 0,0 6.2164,21.8584 10.3532,31.2352 0.4732,1.0648 0.8084,2.0528 1.094,3.0144 2.2156,7.5036 -0.7964,12.3912 -2.7508,22.9024 -2.2076,11.8608 -15.722,25.3772 -20.686,35.5816 -4.9636,10.2024 -3.5824,23.164 -1.9288,30.058 1.6552,6.8952 12.41,27.0244 13.7892,31.7112 0.26222,1.0052 0.43448,3.26728 0.4333,4.2976 3.23724,0.63064 6.02404,2.36648 8.262,4.0236 0.912,-8.3576 3.1495,-17.2224 3.1495,-17.2224 1.834,4.8468 2.182,6.6084 8.8252,18.4816 0,0 1.1,-11.0364 3.0312,-18.206 1.9308,-7.1716 7.9968,-29.5032 6.8924,-42.4652 -1.1024,-12.9624 -11.308,-19.03 -11.8604,-21.788 -0.5504,-2.758 0.288,-2.4764 8.2784,-11.3012 7.998,-8.8252 11.0304,-18.4844 9.1008,-24.8268 -0.9516,-3.1304 -2.782,-4.9084 -4.784,-6.446 -2.0564,-1.5784 -4.298,-2.8996 -5.974,-5.1352 -3.3092,-4.4124 -17.2544,-46.882 -17.2544,-46.882 z"
         style="opacity:1;fill:#ffffff;fill-opacity:1;fill-rule:evenodd;stroke:none;stroke-width:3;stroke-linecap:butt;stroke-linejoin:miter;stroke-miterlimit:4;stroke-dasharray:none;stroke-opacity:1" />
      <g
         inkscape:export-filename="C:\Users\Hasan Ali Rizvi\Documents\Hoodie Artist\MUNIC TEN\Logo\Exports\Logo Set\munictenlogoblackpink.png"
         inkscape:export-ydpi="512"
         inkscape:export-xdpi="512"
         transform="matrix(3.0806728,0,0,3.0806728,2308.9424,-9308.3774)"
         id="g5049"
         style="fill:#ffffff;fill-opacity:1">
        <path
           id="path5051"
           d="m -560.95066,3240.4564 c -10.05984,2.0844 -11.54454,1.2218 -8.97386,-5.208 3.46604,-8.6705 13.67206,-15.543 21.23576,-14.3073 0.72042,0.1176 1.28728,0.3192 1.78756,0.5528 -0.0933,0.1421 -0.14848,0.2317 -0.27942,0.3571 -1.92216,2.5931 -4.76123,5.4483 -7.07964,7.6747 -1.17389,1.1284 -2.1449,2.0319 -2.86226,2.7202 -0.33522,0.3433 -0.6203,0.6061 -0.78569,0.786 -0.097,0.09 -0.13345,0.1685 -0.17105,0.2017 -0.0529,0.065 -0.0293,0.076 -0.0293,0.076 l 0,0 c 9e-5,4e-4 -7e-4,3e-4 -0.0332,0.012 -3.1e-4,-6e-4 0,0 -6.9e-4,3e-4 l -1.1e-4,-4e-4 c 0,0 -3e-4,1e-4 0,0 -2.8e-4,0 -0.0332,0.012 -0.0332,0.012 l 0,0 c 0.0106,0.035 0.0761,0.03 0.0979,0.017 l 0,0 0.2885,-0.06 c 0.24289,-0.091 0.58238,-0.2579 1.00366,-0.5024 0.84713,-0.4899 2.0233,-1.2679 3.34231,-2.2089 2.56112,-1.8286 5.73003,-4.3611 8.12891,-6.7718 0.15348,1.2854 -0.23108,3.0094 -1.19373,5.3335 -3.02645,7.2986 -5.83023,9.4694 -14.52319,11.2708 z"
           style="fill:#ffffff;fill-opacity:1;fill-rule:evenodd;stroke:none;stroke-width:1px;stroke-linecap:butt;stroke-linejoin:miter;stroke-opacity:1"
           inkscape:connector-curvature="0" />
        <path
           sodipodi:nodetypes="cccccccscccscccscccccsc"
           inkscape:connector-curvature="0"
           id="path5053"
           d="m -537.35922,3247.011 c -3.89965,-5.4918 -6.02304,-15.4616 -4.564,-21.4026 0.73763,-3.0016 4.67647,-8.4081 7.70912,-11.1168 0.1288,3.2237 -0.0876,7.6741 -0.33554,11.484 -0.11725,2.0425 -0.26239,3.8713 -0.3403,5.1634 -0.0444,0.6473 -0.0687,1.1579 -0.0494,1.5007 -0.0119,0.1657 0.019,0.3001 0.0125,0.3755 -0.0332,0.013 0.0346,0.091 0.0729,0.061 l 0,0 c 2.9e-4,0 3.5e-4,-10e-5 0.0105,0.035 l 0.0106,0.035 0.0106,0.035 c 0.0105,0.035 0.0302,-0.077 0.0493,-0.087 0.0421,-0.084 0.0901,-0.2022 0.16156,-0.3516 0.10882,-0.3284 0.23584,-0.8325 0.39974,-1.463 0.3082,-1.2652 0.67846,-3.0618 1.04509,-5.0872 0.72422,-4.0099 1.46897,-9.0265 1.73475,-12.4209 0.0144,-0.2819 0.0299,-0.4897 0.008,-0.7451 0.60345,0.1617 1.77888,0.9966 2.88445,2.1051 1.2842,1.2845 3.04445,4.6481 3.91899,7.478 2.17578,7.0273 -0.69608,18.5843 -6.09151,24.5092 -2.29661,2.5235 -2.98761,3.2222 -3.69396,3.0732 -0.6263,-0.1321 -1.27178,-0.8168 -2.95339,-3.1809 z"
           style="fill:#ffffff;fill-opacity:1;fill-rule:evenodd;stroke:none;stroke-width:1px;stroke-linecap:butt;stroke-linejoin:miter;stroke-opacity:1" />
        <path
           inkscape:connector-curvature="0"
           style="fill:#ffffff;fill-opacity:1;fill-rule:evenodd;stroke:none;stroke-width:1px;stroke-linecap:butt;stroke-linejoin:miter;stroke-opacity:1"
           d="m -547.77802,3254.9903 c -5.37599,4.791 -6.57964,4.7877 -7.27256,-0.017 -0.93487,-6.4777 2.85197,-14.2265 7.87632,-16.1271 0.47897,-0.18 0.89334,-0.2574 1.27891,-0.2907 -0.006,0.1187 -0.008,0.1923 -0.0444,0.3145 -0.25814,2.2479 -0.98077,4.9759 -1.60779,7.14 -0.3172,1.0964 -0.59,1.9852 -0.7841,2.6542 -0.0839,0.3259 -0.16456,0.5853 -0.20145,0.7525 -0.0282,0.089 -0.0217,0.149 -0.0336,0.1826 -0.009,0.059 0.009,0.056 0.009,0.056 l 0,0 c 2.9e-4,1e-4 -2.7e-4,4e-4 -0.0162,0.021 -3.8e-4,-2e-4 0,0 -1.7e-4,3e-4 l 2.7e-4,0 c 0,0 -1.8e-4,3e-4 0,0 -5.6e-4,-4e-4 -0.0158,0.021 -0.0158,0.021 l 0,0 c 0.0176,0.019 0.0562,-0.01 0.0654,-0.021 l 0,0 0.15379,-0.138 c 0.11557,-0.1404 0.26308,-0.3608 0.43319,-0.6567 0.34227,-0.5945 0.78384,-1.4788 1.25475,-2.5122 0.91384,-2.0076 1.94974,-4.6556 2.56109,-6.9595 0.54365,0.7265 0.91453,1.9077 1.14459,3.6558 0.72076,5.4912 -0.22033,7.7915 -4.8659,11.9316 z"
           id="path5055" />
        <path
           id="path5057"
           d="m -569.20797,3258.929 c -7.02327,1.4553 -8.05988,0.8532 -6.26489,-3.6363 2.41957,-6.0531 9.54514,-10.8514 14.82557,-9.9883 0.50268,0.084 0.89855,0.2237 1.24816,0.3852 -0.064,0.1002 -0.1028,0.1618 -0.19497,0.2493 -1.34215,1.8104 -3.32406,3.8035 -4.94269,5.3581 -0.81965,0.7878 -1.4976,1.4186 -1.99821,1.8991 -0.23469,0.2393 -0.43343,0.4228 -0.54852,0.5487 -0.0688,0.063 -0.093,0.1182 -0.11975,0.1407 -0.037,0.046 -0.0212,0.054 -0.0212,0.054 l 0,0 c 1.8e-4,2e-4 -4.6e-4,2e-4 -0.0245,0.01 -2.2e-4,-4e-4 0,0 -3e-4,2e-4 l 2.4e-4,0 c 0,0 -3.4e-4,3e-4 0,0 -3e-4,-6e-4 -0.0236,0.01 -0.0236,0.01 l 0,0 c 0.006,0.026 0.0511,0.028 0.0662,0.018 l 0,0 0.20125,-0.042 c 0.16955,-0.063 0.40659,-0.1801 0.70071,-0.3507 0.59131,-0.3424 1.41261,-0.8853 2.33345,-1.5421 1.78809,-1.2766 4.00041,-3.045 5.67515,-4.7278 0.10714,0.8974 -0.1612,2.101 -0.83338,3.7236 -2.11299,5.0956 -4.07034,6.6111 -10.13944,7.8688 z"
           style="fill:#ffffff;fill-opacity:1;fill-rule:evenodd;stroke:none;stroke-width:1px;stroke-linecap:butt;stroke-linejoin:miter;stroke-opacity:1"
           inkscape:connector-curvature="0" />
      </g>
      <path
         inkscape:export-filename="C:\Users\Hasan Ali Rizvi\Documents\Hoodie Artist\MUNIC TEN\Logo\Exports\Logo Set\munictenlogoblackpink.png"
         inkscape:connector-curvature="0"
         inkscape:export-ydpi="512"
         inkscape:export-xdpi="512"
         id="text5061"
         d="m 1073.633,442.77484 c -5.5084,0 -10.7294,0.99728 -15.6016,2.9961 -4.8385,1.98506 -9.1035,4.7716 -12.7265,8.32812 l -0.01,0.008 -0.01,0.008 c -3.6175,3.49672 -6.4962,7.6327 -8.6055,12.34766 l 0,0.008 0,0.008 c -2.0742,4.71422 -3.1094,9.81578 -3.1094,15.22266 0,5.40692 1.0319,10.53416 3.1016,15.30078 l 0.01,0.02 0.01,0.02 c 2.1137,4.66258 4.9979,8.76724 8.6172,12.26172 3.6201,3.49526 7.8717,6.27402 12.6992,8.31642 l 0.012,0.004 0.016,0.012 c 4.8722,1.99884 10.0932,2.9961 15.6016,2.9961 6.371,0 12.2873,-1.3431 17.621,-4.03906 5.3313,-2.66562 9.8953,-6.29024 13.625,-10.82814 l 1.4024,-1.70312 -13.1172,-13.48438 -1.7031,2.46484 c -2.0305,2.93888 -4.5305,5.28016 -7.5664,7.09376 -2.9343,1.6954 -6.2999,2.5625 -10.2617,2.5625 -2.9628,0 -5.7146,-0.55304 -8.3321,-1.64844 -2.604,-1.17332 -4.8569,-2.69316 -6.8047,-4.58594 -1.9504,-1.95366 -3.4903,-4.17494 -4.6562,-6.71094 -1.0918,-2.55846 -1.6367,-5.21408 -1.6367,-8.04686 0,-2.90388 0.5447,-5.55556 1.6328,-8.04688 1.169,-2.6012 2.7093,-4.81636 4.6484,-6.70312 l 0.012,-0.016 0.012,-0.012 c 1.9481,-1.94804 4.1916,-3.46268 6.7852,-4.57422 l 0.01,-0.004 0.012,-0.008 c 2.6167,-1.15136 5.3616,-1.71876 8.3203,-1.71876 3.7129,0 7.0011,0.8524 10.0273,2.57422 l 0.023,0.016 0.023,0.012 c 3.145,1.70574 5.6418,3.91656 7.5899,6.70704 l 1.707,2.4453 13.0234,-13.3828 -1.4101,-1.70314 c -3.5658,-4.31654 -8.0455,-7.8157 -13.3594,-10.47264 -5.3328,-2.69554 -11.2489,-4.04298 -17.6211,-4.04298 l 0,0 z m -317.89063,1.32032 0,2.46484 0,72.7461 18.28514,0 0,-40.33984 18.7422,33.22264 19.72656,-33.26952 0,40.38672 18.28516,0 0,-75.21094 -18.72656,0 -18.92188,32.3789 -18.10548,-32.3789 -19.28514,0 z m 88.92968,0 0,2.46484 0,38.5664 c 0,4.8866 0.7767,9.51872 2.34374,13.84376 l 0,0.004 0.004,0.008 c 1.56444,4.25532 3.80884,8.02768 6.71874,11.2539 l 0.02,0.016 0.016,0.02 c 2.98368,3.1741 6.584,5.6898 10.73046,7.51172 4.21026,1.84996 8.9032,2.7539 13.9961,2.7539 5.20314,0 9.92576,-0.90214 14.09376,-2.76172 l 0.008,-0.004 0.008,-0.004 c 4.15302,-1.88774 7.7062,-4.47562 10.57812,-7.73048 2.90992,-3.29008 5.12974,-7.12794 6.63282,-11.44922 1.5031,-4.3214 2.24218,-8.9675 2.24218,-13.89844 l 0,-40.59374 -18.72266,0 0,41.29688 c 0,2.58968 -0.34794,4.9023 -1.01952,6.96874 l -0.008,0.0274 -0.008,0.0274 c -0.61624,2.05414 -1.54146,3.7849 -2.78516,5.27736 l 0,0.004 -0.004,0.004 c -1.14596,1.3847 -2.62888,2.49518 -4.54686,3.35548 -1.78632,0.76936 -4.01332,1.19922 -6.73438,1.19922 -2.50526,0 -4.64466,-0.44378 -6.51172,-1.27344 -1.85998,-0.91152 -3.36656,-2.0782 -4.59376,-3.55078 -1.2525,-1.503 -2.21306,-3.26138 -2.8867,-5.33204 0,0 -0.004,-0.004 -0.004,-0.004 -0.6779,-2.14354 -1.01952,-4.42168 -1.01952,-6.8789 l 0,-41.1211 -18.54688,0 z m 80.21484,0 0,2.46484 0,72.7461 18.28516,0 0,-43.36328 27.90624,43.36328 17.16016,0 0,-75.21094 -18.28124,0 0,40.0039 -25.98048,-40.0039 -19.08984,0 z m 78.13671,0.086 0,2.46484 0,72.66016 18.5469,0 0,-75.125 -18.5469,0 z m -116.12499,85.41016 0,2.46484 0,72.75 18.28126,0 0,-43.36328 27.90624,43.36328 17.16406,0 0,-75.21484 -18.28516,0 0,40.0078 -25.97656,-40.0078 -19.08984,0 z m -131.15624,0.0898 0,2.46484 0,14.58984 19.41796,0 0,58.07032 18.72266,0 0,-58.07032 19.41406,0 0,-17.05468 -57.55468,0 z m 67.77342,0 0,2.46484 0,72.66016 51.31642,0 0,-16.78906 -33.03126,0 0,-14.39844 32.59376,0 0,-15.91406 -32.59376,0 0,-11.84766 33.03126,0 0,-16.17578 -51.31642,0 z"
         style="font-style:normal;font-weight:normal;font-size:43.92694473px;line-height:125%;font-family:sans-serif;letter-spacing:0px;word-spacing:0px;opacity:1;fill:#ffffff;fill-opacity:1;stroke:none;stroke-width:2.46453834;stroke-linecap:butt;stroke-linejoin:miter;stroke-miterlimit:4;stroke-dasharray:none;stroke-opacity:1" />
    </g>
  </g>
</svg>
